<?xml version="1.0" standalone="no"?>
<!DOCTYPE svg PUBLIC "-//W3C//DTD SVG 20010904//EN"
 "http://www.w3.org/TR/2001/REC-SVG-20010904/DTD/svg10.dtd">
<svg version="1.0" xmlns="http://www.w3.org/2000/svg"
 width="256.000000pt" height="256.000000pt" viewBox="0 0 256.000000 256.000000"
 preserveAspectRatio="xMidYMid meet">

<g transform="translate(0.000000,256.000000) scale(0.100000,-0.100000)"
fill="#000000" stroke="none">
<path d="M1517 2544 c-354 -64 -641 -355 -702 -714 -19 -109 -17 -169 8 -184
26 -16 52 4 54 45 26 352 223 627 529 738 467 169 965 -116 1060 -607 74 -385
-164 -784 -535 -898 -130 -40 -131 -41 -131 -68 0 -41 28 -48 106 -27 320 85
557 325 639 646 21 83 21 327 -1 414 -85 338 -361 597 -699 656 -106 18 -223
18 -328 -1z"/>
<path d="M1572 2388 c-7 -7 -12 -41 -12 -84 l0 -73 -53 -24 c-198 -90 -246
-357 -93 -510 64 -64 126 -89 244 -96 93 -6 106 -9 123 -30 24 -30 24 -72 0
-102 -19 -23 -25 -24 -205 -29 l-186 -5 -32 -33 c-28 -28 -33 -39 -33 -82 0
-43 5 -54 33 -82 31 -31 37 -33 117 -37 l85 -3 0 -67 c0 -39 5 -72 12 -79 16
-16 200 -16 216 0 7 7 12 41 12 83 l0 70 65 34 c72 37 103 68 143 145 23 44
27 63 27 136 -1 77 -4 91 -35 148 -62 116 -141 161 -299 171 -92 6 -105 9
-122 30 -24 30 -24 72 0 102 19 23 25 24 205 29 l186 5 32 33 c28 28 33 39 33
82 0 43 -5 54 -33 82 -31 31 -37 33 -117 37 l-85 3 0 67 c0 39 -5 72 -12 79
-8 8 -47 12 -108 12 -61 0 -100 -4 -108 -12z m148 -137 c0 -44 5 -72 13 -79 7
-6 57 -13 111 -14 81 -2 101 -6 110 -20 8 -13 8 -23 0 -35 -10 -16 -34 -19
-192 -23 -197 -5 -208 -9 -256 -74 -29 -39 -29 -133 0 -172 42 -57 67 -68 177
-74 111 -7 160 -25 208 -77 47 -50 63 -93 63 -163 0 -107 -57 -187 -160 -225
-72 -27 -74 -30 -74 -106 l0 -69 -40 0 -40 0 0 69 c0 44 -5 72 -13 79 -7 6
-57 13 -111 14 -81 2 -101 6 -110 21 -8 12 -8 22 0 35 10 15 34 18 192 22 197
5 208 9 256 74 29 39 29 133 0 172 -42 57 -67 68 -177 74 -111 7 -160 25 -208
77 -47 50 -63 93 -63 163 0 107 57 187 160 225 72 27 74 30 74 106 l0 69 40 0
40 0 0 -69z"/>
<path d="M572 2108 c-7 -7 -12 -24 -12 -39 0 -24 -5 -28 -31 -31 -64 -6 -64
-70 -1 -76 26 -3 31 -8 34 -34 6 -63 70 -63 76 0 3 26 8 31 34 34 63 6 63 70
-1 76 -26 3 -31 7 -31 31 0 30 -16 51 -40 51 -9 0 -21 -5 -28 -12z"/>
<path d="M773 1589 c-6 -8 -47 -139 -92 -291 -44 -152 -86 -289 -95 -305 -8
-16 -34 -47 -58 -69 -43 -38 -43 -39 -46 -14 -7 49 -11 50 -241 50 -155 0
-220 -3 -229 -12 -17 -17 -17 -919 0 -936 17 -17 439 -17 456 0 7 7 12 22 12
34 0 22 0 22 113 -12 l112 -34 363 0 c346 0 365 1 403 20 75 39 105 122 72
200 -20 46 -20 47 -1 59 23 15 58 86 58 121 0 14 -9 43 -19 66 -18 40 -18 41
1 53 23 15 58 86 58 121 -1 14 -8 42 -18 64 l-17 38 32 34 c54 58 56 145 6
205 -48 56 -66 59 -363 59 l-270 0 0 23 c0 13 7 77 16 142 22 166 9 242 -52
314 -49 58 -174 102 -201 70z m112 -99 c35 -22 63 -70 72 -124 3 -18 -5 -110
-17 -205 -17 -135 -19 -175 -10 -186 10 -13 63 -15 317 -15 l304 0 24 -25 c30
-29 32 -74 6 -106 -18 -23 -27 -24 -152 -29 -111 -4 -134 -8 -143 -22 -8 -13
-8 -23 0 -35 9 -15 31 -19 123 -23 103 -5 114 -7 132 -29 24 -30 24 -72 0
-102 -18 -23 -27 -24 -152 -29 -111 -4 -134 -8 -143 -22 -8 -13 -8 -23 0 -35
9 -15 31 -19 123 -23 103 -5 114 -7 132 -29 24 -30 24 -72 0 -102 -18 -23 -27
-24 -152 -29 -111 -4 -134 -8 -143 -22 -8 -13 -8 -23 0 -35 9 -15 31 -19 123
-23 103 -5 114 -7 132 -29 26 -32 24 -77 -6 -106 l-24 -25 -354 0 c-292 0
-363 3 -408 16 -30 8 -84 24 -121 35 l-68 20 1 327 0 327 52 25 c35 17 65 44
95 82 41 53 49 75 118 315 41 142 76 264 79 271 6 17 23 15 60 -8z m-485
-1010 l0 -400 -160 0 -160 0 0 400 0 400 160 0 160 0 0 -400z"/>
<path d="M2052 628 c-7 -7 -12 -24 -12 -39 0 -24 -5 -28 -31 -31 -64 -6 -64
-70 -1 -76 26 -3 31 -8 34 -34 2 -17 11 -36 21 -42 25 -16 51 4 55 42 3 26 8
31 34 34 63 6 63 70 -1 76 -26 3 -31 7 -31 31 0 30 -16 51 -40 51 -9 0 -21 -5
-28 -12z"/>
</g>
</svg>
