<?xml version="1.0" encoding="UTF-8"?>
<svg xmlns="http://www.w3.org/2000/svg" xmlns:xlink="http://www.w3.org/1999/xlink" width="20px" height="20px" viewBox="0 0 5 5" version="1.1">
<g id="surface1">
<path style=" stroke:none;fill-rule:nonzero;fill:rgb(17.254902%,71.764708%,25.882354%);fill-opacity:1;" d="M 0 5 L 0.429688 3.710938 C 0.210938 3.34375 0.0859375 2.914062 0.0859375 2.457031 C 0.0859375 1.101562 1.1875 0 2.542969 0 C 3.898438 0 5 1.101562 5 2.457031 C 5 3.8125 3.898438 4.914062 2.542969 4.914062 C 2.132812 4.914062 1.742188 4.8125 1.398438 4.632812 Z M 0 5 "/>
<path style=" stroke:none;fill-rule:nonzero;fill:rgb(100%,100%,100%);fill-opacity:1;" d="M 4.109375 3.273438 C 4 3.0625 3.578125 2.8125 3.578125 2.8125 C 3.484375 2.757812 3.367188 2.757812 3.316406 2.851562 C 3.316406 2.851562 3.179688 3.015625 3.148438 3.039062 C 2.984375 3.144531 2.84375 3.140625 2.695312 2.992188 L 2.007812 2.304688 C 1.859375 2.15625 1.855469 2.015625 1.960938 1.851562 C 1.984375 1.820312 2.148438 1.683594 2.148438 1.683594 C 2.242188 1.632812 2.242188 1.515625 2.1875 1.421875 C 2.1875 1.421875 1.9375 1 1.726562 0.890625 C 1.632812 0.84375 1.523438 0.859375 1.449219 0.929688 L 1.296875 1.082031 C 0.820312 1.5625 1.054688 2.109375 1.53125 2.585938 L 2.414062 3.46875 C 2.894531 3.945312 3.4375 4.179688 3.917969 3.703125 L 4.070312 3.550781 C 4.140625 3.476562 4.15625 3.367188 4.109375 3.273438 Z M 4.109375 3.273438 "/>
</g>
</svg>
